<?xml version="1.0" encoding="UTF-8" standalone="no"?>
<!-- Created with Inkscape (http://www.inkscape.org/) -->

<svg
   xmlns:dc="http://purl.org/dc/elements/1.1/"
   xmlns:cc="http://creativecommons.org/ns#"
   xmlns:rdf="http://www.w3.org/1999/02/22-rdf-syntax-ns#"
   xmlns:svg="http://www.w3.org/2000/svg"
   xmlns="http://www.w3.org/2000/svg"
   xmlns:sodipodi="http://sodipodi.sourceforge.net/DTD/sodipodi-0.dtd"
   xmlns:inkscape="http://www.inkscape.org/namespaces/inkscape"
   width="210mm"
   height="297mm"
   viewBox="0 0 210 297"
   version="1.1"
   id="svg8"
   inkscape:version="0.92.2 (5c3e80d, 2017-08-06)"
   sodipodi:docname="w_opt.svg">
  <defs
     id="defs2" />
  <sodipodi:namedview
     id="base"
     pagecolor="#ffffff"
     bordercolor="#666666"
     borderopacity="1.0"
     inkscape:pageopacity="0.0"
     inkscape:pageshadow="2"
     inkscape:zoom="0.35"
     inkscape:cx="-1228.9962"
     inkscape:cy="638.32642"
     inkscape:document-units="mm"
     inkscape:current-layer="layer1"
     showgrid="false"
     inkscape:window-width="1920"
     inkscape:window-height="1017"
     inkscape:window-x="-8"
     inkscape:window-y="-8"
     inkscape:window-maximized="1" />
  <metadata
     id="metadata5">
    <rdf:RDF>
      <cc:Work
         rdf:about="">
        <dc:format>image/svg+xml</dc:format>
        <dc:type
           rdf:resource="http://purl.org/dc/dcmitype/StillImage" />
        <dc:title></dc:title>
      </cc:Work>
    </rdf:RDF>
  </metadata>
  <g
     inkscape:label="Layer 1"
     inkscape:groupmode="layer"
     id="layer1">
    <ellipse
       style="opacity:1;fill:#1747cb;fill-opacity:1;fill-rule:nonzero;stroke:none;stroke-width:0.74050778;stroke-linecap:square;stroke-miterlimit:4;stroke-dasharray:none;stroke-dashoffset:0;stroke-opacity:1;paint-order:stroke fill markers"
       id="path4893"
       cx="105.41093"
       cy="141.65176"
       r="100.91964"
       inkscape:export-xdpi="2.013483"
       inkscape:export-ydpi="2.013483" />
    <g
       id="g4866"
       transform="matrix(0.20777574,0,0,0.20777574,46.613617,53.990901)"
       style="fill:#ffffff"
       inkscape:export-xdpi="2.013483"
       inkscape:export-ydpi="2.013483">
      <path
         id="path4860"
         d="m 125.46,815.9 c -2.624,-5.8314 -11.767,-15.007 -18.202,-18.269 -10.706,-5.4252 -21.175,-6.8345 -31.287,-4.2117 -3.0066,0.77991 -5.6595,1.2251 -5.8953,0.98927 -0.40023,-0.40023 3.4045,-40.653 4.5778,-48.431 l 0.53153,-3.5237 -7.3416,-2.3485 c -12.181,-3.8965 -36.775,-13.966 -46.243,-18.934 l -8.9017,-4.6702 10.679,-0.61134 c 9.621,-0.55078 11.409,-0.97207 18.046,-4.2526 12.017,-5.9391 22.316,-18.888 24.151,-30.367 1.0476,-6.551 1.391,-6.7063 8.4704,-3.8297 3.4874,1.417 6.629,2.2354 6.9814,1.8185 0.3524,-0.41688 6.5874,-58.808 13.856,-129.76 7.2681,-70.95 13.367,-129.75 13.552,-130.67 0.37653,-1.8616 1.9814,-2.2245 -18.25,4.1262 -5.6749,1.7813 -10.492,3.0643 -10.706,2.851 -0.21329,-0.21329 0.27814,-2.3207 1.0921,-4.6832 6.0793,-17.645 -0.93813,-38.689 -16.712,-50.115 l -3.7046,-2.6836 8.9239,-2.8519 c 4.9082,-1.5686 8.9239,-3.1644 8.9239,-3.5463 0,-0.38194 -2.9005,-2.5842 -6.4456,-4.8939 -9.2799,-6.0461 -9.4129,-6.3422 -4.2168,-9.3874 5.905,-3.4606 13.941,-12.431 17.079,-19.064 3.8203,-8.0754 5.2406,-17.892 3.7552,-25.954 -0.66302,-3.5983 -2.1031,-8.6364 -3.2001,-11.196 l -1.9946,-4.6532 7.7613,7.2607 c 8.3086,7.7727 26.823,20.73 27.975,19.578 0.85326,-0.85326 20.083,-185.62 19.318,-185.62 -0.30003,0 -5.1976,2.2822 -10.883,5.0717 -5.6854,2.7895 -10.469,4.9269 -10.629,4.75 -0.16,-0.1769 0.39513,-3.6967 1.2336,-7.8217 2.7894,-13.722 -1.0307,-27.528 -10.548,-38.121 -2.5876,-2.8799 -6.6041,-6.4417 -8.9256,-7.9152 l -4.2209,-2.679 10.721,-5.0475 c 10.603,-4.9919 24.477,-10.401 35.309,-13.765 l 5.588,-1.7356 1.2963,-14.118 c 0.71295,-7.7651 1.4423,-14.383 1.6208,-14.706 0.17847,-0.32327 3.3806,0.92823 7.1158,2.7811 16.824,8.3455 35.847,5.9395 50.203,-6.3496 l 4.4118,-3.7766 -0.68343,8.4664 c -0.37588,4.6565 -0.95668,10.604 -1.2906,13.216 l -0.60723,4.75 h 12.455 c 34.344,0 71.224,7.1023 102.93,19.821 32.19,12.914 65.459,36.134 83.606,58.354 49.422,60.514 49.424,132.81 0.003,193.61 -7.3754,9.0741 -24.163,24.32 -35.458,32.2 -5.1789,3.6134 -8.0072,6.1623 -7.166,6.4581 0.76427,0.26879 5.8896,1.9062 11.39,3.6386 30.28,9.5379 69.971,28.903 91.212,44.501 24.59,18.058 36.763,29.396 51.444,47.916 16.843,21.247 26.91,42.164 32.969,68.5 3.1285,13.598 3.12,40.425 -0.017,53.5 -8.2234,34.275 -19.82,55.423 -46.517,84.829 -10.06,11.081 -36.685,32.471 -50.709,40.74 -48.742,28.739 -101.41,46.791 -159.88,54.795 -27.697,3.7916 -40.125,4.5893 -71,4.5569 -31.01,-0.0325 -47.824,-1.1952 -75.782,-5.2401 -12.274,-1.7758 -12.282,-1.7756 -12.702,0.2706 -0.23127,1.1262 -1.6014,14.198 -3.0446,29.048 -1.4432,14.85 -2.946,28.069 -3.3395,29.375 -0.6681,2.2184 -0.84449,2.088 -2.6736,-1.9768 z M 261.45,701.97 c 72.629,-7.0285 132.35,-27.279 174.89,-59.3 19.019,-14.317 29.441,-24.972 40.565,-41.474 16.758,-24.859 19.795,-51.085 9.1805,-79.277 -6.8171,-18.107 -26.08,-40.931 -49.082,-58.154 -51.987,-38.927 -128.47,-60.925 -212.5,-61.118 -26.498,-0.0609 -53.489,1.8286 -53.515,3.7462 -0.008,0.61173 -6.7313,65.912 -14.94,145.11 -8.2087,79.198 -14.615,144.3 -14.235,144.67 1.5012,1.4527 41.382,6.094 62.19,7.2376 10.044,0.55201 46.235,-0.35559 57.448,-1.4407 z M 250.859,337.45 c 24.188,-3.5522 41.833,-8.8321 61.644,-18.446 15.052,-7.3045 27.686,-16.231 39.624,-27.995 21.012,-20.707 30.461,-41.363 30.189,-66 -0.25975,-23.557 -9.6649,-43.682 -29.745,-63.648 -28.5,-28.337 -67.701,-44.519 -117.32,-48.431 -8.5292,-0.67236 -19.026,-0.87554 -24.403,-0.47237 l -9.4362,0.70746 -9.3171,90.172 c -5.1244,49.595 -10.305,99.708 -11.512,111.36 l -2.1948,21.192 6.5594,1.0922 c 19.35,3.2218 45.872,3.4092 65.916,0.4657 z"
         inkscape:connector-curvature="0"
         style="fill:#ffffff" />
      <path
         id="path4862"
         d="m 125.11,814.5 c -3.4187,-6.4444 -12.945,-15.064 -20.615,-18.653 -7.711,-3.6084 -19.624,-4.8482 -28.433,-2.959 -2.9457,0.63174 -5.5803,0.92407 -5.8547,0.64963 -0.45158,-0.45158 3.1501,-38.917 4.4641,-47.676 l 0.54507,-3.6334 -5.3592,-1.7407 c -12.792,-4.1549 -36.542,-13.827 -46.528,-18.948 l -10.831,-5.5545 5.5,0.57986 c 6.7987,0.71678 17.957,-1.5008 24.671,-4.9032 11.287,-5.7196 19.888,-16.637 23.113,-29.338 l 1.8052,-7.1086 5.911,2.4049 c 3.2511,1.3227 6.373,2.2509 6.9377,2.0626 0.8571,-0.2857 28.725,-261.5 28.005,-262.49 -0.12245,-0.16849 -6.4962,1.744 -14.164,4.25 -7.6677,2.506 -14.219,4.5564 -14.559,4.5564 -0.34,0 0.12785,-1.6875 1.0394,-3.75 2.676,-6.055 2.3697,-23.104 -0.55241,-30.75 -2.9138,-7.6242 -7.8318,-14.367 -14.085,-19.309 l -4.9113,-3.8821 8.8945,-2.8425 c 4.892,-1.5634 8.8793,-3.0954 8.8607,-3.4044 -0.01859,-0.30904 -3.6682,-3.0017 -8.1102,-5.9836 l -8.0764,-5.4217 3.3602,-1.7273 c 5.16,-2.6525 12.284,-9.3555 15.851,-14.916 7.2156,-11.245 9.0267,-26.441 4.6734,-39.214 l -2.2837,-6.7007 7.5599,7.2007 c 7.0861,6.7495 25.911,20.182 26.899,19.194 0.24618,-0.24619 4.7884,-42.308 10.094,-93.471 9.3602,-90.266 9.5857,-93.005 7.6062,-92.391 -1.122,0.3482 -6.0695,2.5985 -10.995,5.0007 -4.9255,2.4022 -9.0216,4.3676 -9.1035,4.3676 -0.0819,0 0.46014,-2.3481 1.2046,-5.2179 4.7231,-18.208 -2.8688,-38.455 -18.236,-48.634 l -4.5801,-3.0337 6.0249,-3.0414 c 7.591,-3.8319 22.79,-9.8561 35.235,-13.965 l 9.5896,-3.1663 1.3235,-14.471 c 0.72795,-7.959 1.6893,-14.471 2.1363,-14.471 0.447,0 2.2861,0.90749 4.0869,2.0166 5.4109,3.3327 15.466,5.9834 22.698,5.9834 11.351,0 21.821,-3.9738 29.83,-11.321 l 4.5552,-4.179 -0.68713,8.5 c -0.37792,4.675 -0.95635,10.836 -1.2854,13.691 l -0.59829,5.1912 5.3808,-0.54226 c 2.9594,-0.29824 12.684,-0.05631 21.61,0.53763 34.756,2.3126 58.173,7.4414 88.271,19.333 16.285,6.4342 28.033,12.658 44.278,23.456 18.101,12.032 38.973,32.62 50.015,49.334 25.606,38.76 32.283,77.977 20.563,120.78 -3.9881,14.564 -11.137,29.291 -22.196,45.721 -7.9923,11.875 -31.015,34.951 -43.41,43.512 -5.0875,3.5137 -9.25,6.6455 -9.25,6.9596 0,0.31407 4.1625,1.8373 9.25,3.385 57.548,17.507 111.63,51.487 142.67,89.643 19.527,24.004 29.169,43.318 35.696,71.5 3.5525,15.34 3.7284,37.158 0.42327,52.5 -4.5405,21.077 -12.845,41.354 -23.34,56.992 -35.379,52.716 -97.237,91.924 -179.7,113.9 -60.954,16.243 -132.85,19.897 -199.35,10.132 -7.4178,-1.0892 -13.332,-1.5352 -13.645,-1.0291 -0.30367,0.49136 -1.8389,13.856 -3.4116,29.7 -1.5727,15.844 -3.146,29.353 -3.4962,30.022 -0.38524,0.73518 -1.564,-0.53273 -2.9843,-3.2102 z M 258,702.52 c 30.205,-2.6731 50.08,-5.9354 73.529,-12.069 14.152,-3.7014 40.538,-12.465 52.414,-17.409 12.985,-5.4049 40.16,-20.825 51.557,-29.255 14.174,-10.485 32.267,-28.674 40.321,-40.536 12.411,-18.279 16.523,-30.808 16.495,-50.261 -0.0196,-13.342 -2.0129,-22.474 -7.7241,-35.388 -9.0539,-20.472 -37.241,-49.372 -64.025,-65.644 -52.711,-32.023 -123.81,-49.99 -197.57,-49.926 -16.413,0.0143 -50.481,2.1059 -51.539,3.1643 -0.4145,0.41451 -30.501,291.09 -30.164,291.42 0.60553,0.60554 31.355,4.6656 44.204,5.8366 19.451,1.7726 52.857,1.8018 72.5,0.0634 z M 245.03,338.45 c 33.526,-4.1453 61.079,-13.614 84.88,-29.168 50.656,-33.104 66.648,-82.97 40.463,-126.17 -6.2347,-10.286 -10.253,-15.12 -20.895,-25.131 -23.659,-22.26 -57.313,-37.598 -95.478,-43.515 -11.347,-1.7592 -43.646,-3.1372 -49.183,-2.0983 l -3.4023,0.63827 -11.527,111.24 c -10.257,98.987 -11.354,111.33 -9.9572,112 3.1852,1.5383 23.997,3.5212 38.099,3.63 7.9914,0.0616 20.141,-0.58177 27,-1.4298 z"
         inkscape:connector-curvature="0"
         style="fill:#ffffff" />
      <path
         id="path4864"
         d="m 126.13,815.93 c -4.0279,-9.0996 -14.652,-18.063 -25.901,-21.853 -6.876,-2.3164 -19.105,-2.7937 -25.571,-0.9982 -2.1141,0.58703 -4.0918,0.81931 -4.3949,0.51619 -0.48967,-0.48968 3.018,-38.436 4.4117,-47.727 l 0.54489,-3.6322 -6.859,-2.2535 c -11.907,-3.9119 -36.067,-13.815 -46.15,-18.916 l -9.709,-4.912 5.7173,0.55942 c 12.881,1.2603 27.864,-4.656 36.975,-14.601 5.6624,-6.1801 10.523,-15.758 11.458,-22.577 l 0.60395,-4.4063 5.1229,2.0798 c 2.8176,1.1439 6.0039,2.1273 7.0806,2.1853 1.869,0.10075 2.5734,-5.8242 15.56,-130.89 7.4812,-72.05 13.279,-131.14 12.883,-131.3 -0.39548,-0.16668 -6.8349,1.6998 -14.31,4.1478 -7.4749,2.448 -13.586,4.1593 -13.58,3.8031 0.006,-0.35627 0.68095,-2.8568 1.5,-5.5567 2.1012,-6.9263 1.8905,-18.081 -0.48689,-25.778 -2.4985,-8.0893 -6.8155,-14.624 -13.617,-20.612 l -5.3389,-4.7007 18.417,-6.1637 -17.509,-11.652 4.8586,-2.7749 c 6.5556,-3.7441 13.83,-12.017 17.505,-19.909 4.0604,-8.7188 4.9325,-23.332 1.9232,-32.227 l -1.9374,-5.7266 7.1229,6.375 c 7.0548,6.314 25.505,18.958 26.383,18.08 0.41172,-0.41172 20.051,-186.73 19.733,-187.2 -0.10089,-0.15119 -17.136,8.0497 -21.734,10.463 -0.368,0.19315 -0.0305,-1.7707 0.75,-4.3641 3.27,-10.865 0.82051,-26.919 -5.5823,-36.586 -3.0823,-4.6535 -9.4195,-10.963 -13.988,-13.926 l -2.4892,-1.6148 6.2016,-3.1305 c 8.0704,-4.0739 19.113,-8.4871 32.777,-13.1 l 11,-3.7131 1.3987,-14.414 c 0.76928,-7.9275 1.5025,-14.547 1.6294,-14.71 0.12689,-0.16284 2.8725,1.0428 6.1013,2.6793 8.3892,4.2519 14.107,5.4218 24.15,4.9417 7.1954,-0.34402 9.9621,-0.98333 15.529,-3.5884 3.7255,-1.7434 8.8522,-4.8723 11.393,-6.9531 l 4.6189,-3.7834 -0.70243,8 c -0.38633,4.4 -0.96136,10.287 -1.2778,13.082 l -0.57541,5.0823 15.868,0.13142 c 16.924,0.14016 27.932,1.1513 46.368,4.2591 45.808,7.7218 89.549,28.517 120.43,57.251 34.792,32.378 52.67,70.812 52.652,113.19 -0.0139,33.933 -11.347,63.973 -35.699,94.624 -7.3791,9.2876 -25.393,25.851 -36.285,33.364 -5.0527,3.4851 -8.8283,6.543 -8.3902,6.7953 0.43803,0.25237 5.5214,1.9146 11.296,3.6938 29.626,9.1275 67.987,27.586 90,43.307 15.105,10.787 30.318,23.335 38.033,31.37 14.834,15.448 29.445,35.722 36.155,50.167 17.511,37.696 19.639,72.354 6.739,109.77 -4.8601,14.095 -9.2512,22.987 -17.23,34.89 -16.302,24.321 -31.97,40.128 -60.229,60.766 -15.454,11.286 -45.57,27.629 -65.56,35.577 -77.67,30.881 -163.93,40.538 -252.39,28.255 -7.7231,-1.0723 -14.225,-1.549 -14.524,-1.0648 -0.29794,0.48207 -1.8285,13.839 -3.4012,29.683 -1.5727,15.844 -3.1463,29.354 -3.4968,30.023 -0.39808,0.75964 -1.1364,0.0888 -1.9666,-1.7869 z M 261,702.53 c 72.899,-6.8008 132.76,-27.21 176.95,-60.325 40.968,-30.705 60.94,-69.414 53.604,-103.89 -3.9389,-18.512 -11.975,-33.192 -28.904,-52.8 -8.8932,-10.301 -32.208,-28.326 -48.146,-37.223 -55.168,-30.795 -119.86,-46.377 -192,-46.243 -20.493,0.0381 -49.643,1.761 -50.89,3.0078 -0.57692,0.57692 -30.702,291.19 -30.233,291.65 0.59499,0.59499 28.13,4.3581 41.857,5.7204 18.345,1.8206 58.765,1.8725 77.766,0.0998 z M 243.789,338.95 c 61.063,-6.6311 112.72,-37.749 131.73,-79.358 9.3605,-20.486 9.8223,-43.868 1.2724,-64.427 -7.8576,-18.894 -25.004,-38.47 -45.291,-51.707 -13.329,-8.6968 -18.402,-11.309 -33.208,-17.098 -25.121,-9.8226 -46.832,-13.754 -76.292,-13.814 l -20.5,-0.0418 -11.571,111.5 c -10.301,99.261 -11.399,111.58 -10,112.25 6.3735,3.059 45.349,4.7016 63.861,2.6913 z"
         inkscape:connector-curvature="0"
         style="fill:#ffffff" />
    </g>
    <ellipse
       style="opacity:1;fill:#ffffff;fill-opacity:0;fill-rule:nonzero;stroke:none;stroke-width:1.06500006;stroke-linecap:square;stroke-miterlimit:4;stroke-dasharray:none;stroke-dashoffset:0;stroke-opacity:1;paint-order:stroke fill markers"
       id="path817"
       cx="-449.03571"
       cy="46.023808"
       rx="193.52382"
       ry="190.5" />
    <circle
       style="opacity:1;fill:#0000ff;fill-opacity:0;fill-rule:nonzero;stroke:none;stroke-width:1.06500006;stroke-linecap:square;stroke-miterlimit:4;stroke-dasharray:none;stroke-dashoffset:0;stroke-opacity:1;paint-order:stroke fill markers"
       id="path819"
       cx="-393.47321"
       cy="224.80655"
       r="110.74702" />
  </g>
</svg>
